<svg height="512" viewBox="0 0 60 58" width="512" xmlns="http://www.w3.org/2000/svg"><g id="008---Astronaut" fill="none"><path id="Shape" d="m15 50h-8c-.55228475 0-1-.4477153-1-1s.44771525-1 1-1h8c.5522847 0 1 .4477153 1 1s-.4477153 1-1 1z" fill="#cbb292"/><path id="Shape" d="m15 45s-1 6 2 7c1.3379116.5176992 2.8440288.3522693 4.0376716-.4434926s1.9256232-2.122397 1.9623284-3.5565074z" fill="#2c3e50"/><path id="Shape" d="m35 51s-.39 7.88-6 6.89c-5.27-.92-3.28-7.08-3-7.81z" fill="#2c3e50"/><path id="Shape" d="m59 50h-23.39c-.5522847 0-1-.4477153-1-1s.4477153-1 1-1h23.39c.5522847 0 1 .4477153 1 1s-.4477153 1-1 1z" fill="#cbb292"/><path id="Shape" d="m36 45c.0949399 2.0482261-.2459025 4.0932801-1 6-.550963 1.5657897-1.8514662 2.750205-3.4618027 3.1527892-1.6103365.4025841-3.3152112-.0304868-4.5381973-1.1527892-.9-.9-1-3.27-1-2.93-.1133748-1.6880985-.1133748-3.3819015 0-5.07-.7371118 1.2322437-1.7677563 2.2628882-3 3-2 1-7 0-8-3-.86-2.59 2.66-10.16 3.81-12.62l16.85 3.78c.34 2.61.34 6.26.34 8.84z" fill="#35495e"/><path id="Shape" d="m35.8 37.74c-3.0427846 1.1020152-6.3482199 1.255432-9.48.44-3.0522476-.7188088-5.8730728-2.198022-8.2-4.3.2587425-.4794164.4891382-.9735986.69-1.48l16.78 3.06c.05.45.16 1.69.21 2.28z" fill="#2c3e50"/><path id="Shape" d="m3 50h-2c-.55228475 0-1-.4477153-1-1s.44771525-1 1-1h2c.55228475 0 1 .4477153 1 1s-.44771525 1-1 1z" fill="#cbb292"/><path id="Shape" d="m43 55h-1c-.5522847 0-1-.4477153-1-1s.4477153-1 1-1h1c.5522847 0 1 .4477153 1 1s-.4477153 1-1 1z" fill="#a59078"/><path id="Shape" d="m53 55h-6c-.5522847 0-1-.4477153-1-1s.4477153-1 1-1h6c.5522847 0 1 .4477153 1 1s-.4477153 1-1 1z" fill="#a59078"/><path id="Shape" d="m6 55h-2c-.55228475 0-1-.4477153-1-1s.44771525-1 1-1h2c.55228475 0 1 .4477153 1 1s-.44771525 1-1 1z" fill="#a59078"/><path id="Shape" d="m14 55h-4c-.55228475 0-1-.4477153-1-1s.44771525-1 1-1h4c.5522847 0 1 .4477153 1 1s-.4477153 1-1 1z" fill="#a59078"/><path id="Shape" d="m36 28 3.41 11.8c.4271018 1.3485724 1.738221 2.2155492 3.1463515 2.080523s2.5306034-1.2353611 2.6936485-2.640523c.39-5.62-2.91-14.78-5.12-20l-4.13-.24z" fill="#3f5c6c"/><path id="Shape" d="m47.81 12.27c0 .22-9.78 4.52-9.81 4.73v18c-.6093209.3588061-1.2524074.6569035-1.92.89-2.6371217.9520946-5.4754361 1.2069917-8.24.74-3.3227758-.4381978-6.4481375-1.8272474-9-4-.6188183-4.1108502.0813826-8.3120558 2-12 0 0-4.92-9-3.62-17.42.2869142-1.57619289 1.7309231-2.67167992 3.3261352-2.52334862s2.8124825 1.49127825 2.8038648 3.09334862c-.1486721 2.81173867.7251216 5.58230417 2.46 7.8-.0141879-.598984.0668206-1.1964218.24-1.77.2310601-1.40293715.6585937-2.7663319 1.27-4.05 2-4.12 6.62-6.09 11-5.71 6.08.52 9.86 6.31 9.49 12.22z" fill="#3f5c6c"/><g fill="#f0c419"><path id="Shape" d="m5 9c-.55228475 0-1-.44771525-1-1v-4c0-.55228475.44771525-1 1-1s1 .44771525 1 1v4c0 .55228475-.44771525 1-1 1z"/><path id="Shape" d="m7 7h-4c-.55228475 0-1-.44771525-1-1s.44771525-1 1-1h4c.55228475 0 1 .44771525 1 1s-.44771525 1-1 1z"/><path id="Shape" d="m56 9c-.5522847 0-1-.44771525-1-1v-4c0-.55228475.4477153-1 1-1s1 .44771525 1 1v4c0 .55228475-.4477153 1-1 1z"/><path id="Shape" d="m58 7h-4c-.5522847 0-1-.44771525-1-1s.4477153-1 1-1h4c.5522847 0 1 .44771525 1 1s-.4477153 1-1 1z"/><path id="Shape" d="m11 28c-.5522847 0-1-.4477153-1-1v-4c0-.5522847.4477153-1 1-1s1 .4477153 1 1v4c0 .5522847-.4477153 1-1 1z"/><path id="Shape" d="m13 26h-4c-.55228475 0-1-.4477153-1-1s.44771525-1 1-1h4c.5522847 0 1 .4477153 1 1s-.4477153 1-1 1z"/></g><path id="Shape" d="m47.58 13.8c-1.1 4.2-5.89 6.47-10.69 5.2-4-1.06-6.78-4.31-6.93-7.77-.23-5.12 5.13-8.77 10.9-7.23 4.89 1.28 7.79 5.76 6.72 9.8z" fill="#f29c1f"/><path id="Shape" d="m45.91 7.14c.23 5-5.1 8.76-10.91 7.21-1.9447591-.5082862-3.6887223-1.5965192-5-3.12-.38-7.71 10.71-10.33 15.91-4.09z" fill="#f0c419"/><path id="Shape" d="m33.44 33.59c-1.8938668-.02751-3.7814413-.2249691-5.64-.59-.3572656-.0696668-.6502259-.3246405-.7685255-.6688749-.1182996-.3442345-.043966-.7254324.1950001-1.0000001.238966-.2745677.6062598-.4007918.9635254-.331125 1.7379954.3264482 3.5016588.4971253 5.27.51.5522847 0 1 .4477153 1 1s-.4477153 1-1 1z" fill="#35495e"/><path id="Shape" d="m24 31.78c-.8645962-.2538261-1.6563973-.7097115-2.31-1.33-.3865993-.397645-.377645-1.0334007.02-1.42s1.0334007-.377645 1.42.02c.3946237.3380303.8358053.6175576 1.31.83.4202253.2035143.6436852.6707422.5383458 1.1256169s-.5114372.7763104-.9783458.7743831z" fill="#35495e"/><path id="Shape" d="m37.78 23.47c-9.62-.53-11.45-7.18-11.53-7.47-.1380712-.5357162.1842838-1.0819288.72-1.22s1.0819288.1842838 1.22.72c.06.24 1.61 5.53 9.7 6 .5522847.0303757.9753757.5027153.945 1.055s-.5027153.9753757-1.055.945z" fill="#35495e"/><path id="Shape" d="m30.24 24.34 2 .5c.4571833.1128155.7737136.5293028.76 1v1.94c.0091729.3125741-.1284007.611443-.3718172.8077466-.2434165.1963037-.564647.267438-.8681828.1922534l-2-.5c-.4571833-.1128155-.7737136-.5293028-.76-1v-1.97c.0002375-.307341.1417889-.597502.3838627-.7868662s.557779-.2568957.8561373-.1831338z" fill="#f0c419"/><path id="Shape" d="m34 12c-.5522847 0-1-.4477153-1-1 0-3.95 3.92-5 6-5 .5522847 0 1 .44771525 1 1s-.4477153 1-1 1c-.18 0-4 .07-4 3 0 .5522847-.4477153 1-1 1z" fill="#f9eab0"/><path id="Shape" d="m38 35c-.6093209.3588061-1.2524074.6569035-1.92.89l-.08-7.82c2.11 7.27 2 6.83 2 6.93z" fill="#35495e"/></g></svg>