<svg height="512" viewBox="0 0 58 58" width="512" xmlns="http://www.w3.org/2000/svg"><g id="002---Astronaut-Floating" fill="none" transform="translate(-1 -1)"><path id="Shape" d="m17.7 41c-4.19 1.4-11.22 9-11.32 9-1.5 1.5-3.62 1.84-4.71.75-.75381804-.8872393-.88491043-2.1465208-.33-3.17 2.87763055-6.202461 6.77122033-11.8806127 11.52-16.8z" fill="#e57e25"/><path id="Shape" d="m29.19 47.15c-4.905962 4.7632172-10.5828193 8.661619-16.79 11.53-1.0234792.5549104-2.2827607.423818-3.17-.33-1.09-1.09-.75-3.21.75-4.71.08-.1 7.62-7.09 9.06-11.34z" fill="#e57e25"/><path id="Shape" d="m26 21.85-6.32 2.33c-.9103849-1.0107743-1.7364783-2.0943948-2.47-3.24-2.7-4.25-2.36-7.12-2.22-7.8s-.07-.14 4.01-7.58c.525264-1.01960397 1.5646637-1.67169743 2.7112403-1.70096466s2.2178914.56894867 2.7944898 1.56042677c.5765984.99147811.5667343 2.21845823-.0257301 3.20053789l-3.29 6c.36 2.27 2.64 5 4.26 6.62.2088532.1787835.3937185.3838158.55.61z" fill="#e57e25"/><path id="Shape" d="m54.46 41c-7.39 4.1-7 3.93-7.59 4s-3.54.48-7.79-2.22c-1.1518817-.7245112-2.2362518-1.551176-3.24-2.47l2.33-6.31c.60405.4181206 1.1577269.9046851 1.65 1.45 1.47 1.3 3.7 3 5.63 3.31l5.95-3.3c1.5298288-.8449957 3.4550043-.2898288 4.3 1.24s.2898288 3.4550043-1.24 4.3z" fill="#e57e25"/><path id="Shape" d="m12.86 30.82 4.84 10.18c-.7900591.2951481-1.5447261.6775127-2.25 1.14-3.14-3.46-4.47-6.44-4.7-9 1-1.14 1.76-1.96 2.11-2.32z" fill="#d25627"/><path id="Shape" d="m19.66 24.18c-.48-.54-.92-1.07-1.31-1.58 1.9999344-.9495838 4.0651991-1.7549702 6.18-2.41 1 1.11 1.11 1.07 1.45 1.66z" fill="#d25627"/><path id="Shape" d="m19 42.3 10.15 4.85c-.36.35-1.16 1.11-2.31 2.1-2.84-.24-5.8-1.79-9-4.7.4745795-.7013127.863986-1.4566269 1.16-2.25z" fill="#d25627"/><path id="Shape" d="m39.82 35.49c-.6424336 2.117774-1.4447397 4.1837121-2.4 6.18-.51-.4-1-.83-1.58-1.32l2.33-6.35c.606247.430593 1.1600141.9306615 1.65 1.49z" fill="#d25627"/><path id="Shape" d="m38.8 31.7c-.7261506 2.9711431-1.7305881 5.8672712-3 8.65-4.3 9.2-10.62 8.76-17.78 1.61s-7.55-13.5 1.6-17.78c2.781776-1.2631692 5.6739945-2.2674117 8.64-3z" fill="#f29c1f"/><rect id="Rectangle-path" fill="#f0c419" height="9.44" rx="1" transform="matrix(.707 .707 -.707 .707 31.114 -9.762)" width="10.49" x="22.096" y="27.957"/><path id="Shape" d="m29.93 34.06c-.5 0-.66-.25-1.45-1-.3877236-.3900375-.3877236-1.0199625 0-1.41.1877666-.1893127.4433625-.2957983.71-.2957983s.5222334.1064856.71.2957983l.74.74c.2611696.2889776.3307783.703308.1783799 1.0617663s-.4990687.5958078-.8883799.6082337z" fill="#f29c1f"/><path id="Shape" d="m27.71 36.28c-.51 0-.66-.24-1.45-1-.1893127-.1877666-.2957983-.4433625-.2957983-.71s.1064856-.5222334.2957983-.71c.3900375-.3877236 1.0199625-.3877236 1.41 0l.74.74c.2666494.2870948.3410628.7034678.1903616 1.0651507-.1507012.3616828-.4987483.6020307-.8903616.6148493z" fill="#f29c1f"/><g fill="#f0c419"><path id="Shape" d="m7 7.66c-.55228475 0-1-.44771525-1-1v-4c0-.55228475.44771525-1 1-1s1 .44771525 1 1v4c0 .55228475-.44771525 1-1 1z"/><path id="Shape" d="m9 5.66h-4c-.55228475 0-1-.44771525-1-1s.44771525-1 1-1h4c.55228475 0 1 .44771525 1 1s-.44771525 1-1 1z"/><path id="Shape" d="m49 56.63c-.5522847 0-1-.4477153-1-1v-4c0-.5522847.4477153-1 1-1s1 .4477153 1 1v4c0 .5522847-.4477153 1-1 1z"/><path id="Shape" d="m51 54.63h-4c-.5522847 0-1-.4477153-1-1s.4477153-1 1-1h4c.5522847 0 1 .4477153 1 1s-.4477153 1-1 1z"/><path id="Shape" d="m4 24.65c-.55228475 0-1-.4477153-1-1v-4c0-.5522847.44771525-1 1-1s1 .4477153 1 1v4c0 .5522847-.44771525 1-1 1z"/><path id="Shape" d="m6 22.65h-4c-.55228475 0-1-.4477153-1-1s.44771525-1 1-1h4c.55228475 0 1 .4477153 1 1s-.44771525 1-1 1z"/></g><path id="Shape" d="m57.16 23.32s-3.86 4.87-4 5c-2.2949375 2.6229814-5.5703781 4.1829251-9.053222 4.3116389-3.482844.1287138-6.8644926-1.1852071-9.346778-3.6316389l-3.76-3.78c-2.4533795-2.4785977-3.7746578-5.8600931-3.6516024-9.3454015s1.6795267-6.76519942 4.3016024-9.0645985c.32-.29.45-.38 5-4 3.3394041-2.65070531 8.135825-2.37539505 11.15.64l8.71 8.71c3.0242997 3.0129031 3.3040714 7.8163674.65 11.16z" fill="#d25627"/><path id="Shape" d="m57.16 23.32s-3.86 4.87-4 5c-4.9946058 4.2896708-12.4498131 4.0108085-17.11-.64l-3.75-3.76c-4.6585316-4.6554342-4.9418993-12.1145436-.65-17.11.24-.22.41-.34 5-4 3.3394041-2.65070531 8.135825-2.37539505 11.15.64l8.71 8.71c3.0242997 3.0129031 3.3040714 7.8163674.65 11.16z" fill="#e57e25"/><path id="Shape" d="m53.88 20.71-3.64 4.59c-1.4878019 1.8760961-3.7070809 3.0261456-6.0977704 3.1599172-2.3906896.1337716-4.7244157-.7615134-6.4122296-2.4599172l-3.73-3.75c-3.2322918-3.2104424-3.298996-8.4178161-.15-11.71.57-.61.77-.72 5.45-4.43 1.6698385-1.33068185 4.0732316-1.19285285 5.58.32l8.71 8.71c1.493468 1.5152325 1.6180396 3.9078667.29 5.57z" fill="#35495e"/><path id="Shape" d="m43.28 10.32c-.4500461-.0071684-.8398433-.3141243-.9523376-.74994296-.1124944-.43581862.0800397-.89308702.4703919-1.11718076s.8823154-.15978211 1.2019457.15712372c.2898332.28736266.3759443.72202497.2175616 1.09818383-.1583827.37615887-.5294705.61831637-.9375616.61181617z" fill="#fff"/><path id="Shape" d="m50.7 17.73c-.2623399-.0011046-.5137394-.1052558-.7-.29l-4.46-4.44c-.3877236-.3900375-.3877236-1.0199625 0-1.41.1877666-.1893127.4433625-.2957983.71-.2957983s.5222334.1064856.71.2957983l4.45 4.41c.3034516.2837978.3998082.7256672.2420612 1.1100367s-.5367315.6311567-.9520612.6199633z" fill="#fff"/><path id="Shape" d="m50.3 25.22c-1.4757881 1.9071263-3.7016162 3.0860664-6.1084348 3.2354155s-4.7613226-.7453699-6.4615652-2.4554155l-3.73-3.75c-3.2322918-3.2104424-3.298996-8.4178161-.15-11.71 5.59 1.22 12.76 4.79 16.45 14.68z" fill="#2c3e50"/></g></svg>