<svg height="512pt" viewBox="0 -21 512 512" width="512pt" xmlns="http://www.w3.org/2000/svg"><path d="m226.605469 141.183594-92.191407-.058594-46.144531 79.808594 46.042969 79.871094 92.191406.058593 46.144532-79.8125zm0 0" fill="#fad79b"/><path d="m364.605469 61.625-92.1875-.058594-46.144531 79.808594 46.042968 79.867188 92.191406.058593 46.144532-79.808593zm0 0" fill="#e6e6e6"/><path d="m364.605469 220.917969-92.1875-.058594-46.144531 79.808594 46.042968 79.871093 92.191406.058594 46.144532-79.8125zm0 0" fill="#c8e7f9"/><path d="m501.996094 291.199219c-5.511719 0-10.003906 4.480469-10.003906 9.992187 0 2.671875 1.042968 4.808594 2.921874 6.699219 1.890626 1.890625 4.402344 2.546875 7.074219 2.546875h.007813c5.511718 0 9.992187-4.097656 10.003906-9.613281 0-5.519531-4.480469-9.625-10.003906-9.625zm0 0"/><path d="m461.996094 291.167969-45.449219-.027344-40.410156-70.109375 43.09375-74.53125c1.789062-3.097656 1.792969-6.910156.007812-10.003906l-42.953125-74.503906 29.570313-46.628907c2.957031-4.667969 1.574219-10.847656-3.09375-13.804687-4.664063-2.960938-10.84375-1.5781252-13.804688 3.089844l-29.828125 46.871093-86.785156-.164062h-.003906c-3.574219 0-6.875 2.007812-8.660156 5.097656l-43.125 74.4375-80.007813-.195313-20.828125-38.152343c-1.75-3.21875-5.121094-5.199219-8.792969-5.199219-1.660156 0-3.3125.425781-4.78125 1.226562-2.34375 1.28125-4.050781 3.394532-4.804687 5.964844-.757813 2.5625-.46875 5.261719.8125 7.613282l20.902344 38.238281-41.054688 71.019531h-71.996094c-5.527344 0-10.003906 4.480469-10.003906 10.003906 0 5.523438 4.476562 10.003906 10.003906 10.003906h72.785156l39.835938 69.1875-24.484375 35.296876c-1.519531 2.1875-2.101563 4.867187-1.628906 7.488281.480469 2.632812 1.949219 4.929687 4.140625 6.449219 1.679687 1.171874 3.648437 1.796874 5.691406 1.796874 3.28125 0 6.363281-1.597656 8.230469-4.289062l25.382812-36.546875 80.5625.054687 40.292969 69.894532-24.730469 39.882812c-2.898437 4.691406-1.449219 10.871094 3.234375 13.773438 1.589844.980468 3.410156 1.5 5.261719 1.5 3.488281 0 6.679687-1.769532 8.511719-4.730469l25.113281-40.523437 79.742187.140624 43.253907 75.027344c1.855469 3.214844 5.214843 5.007813 8.675781 5.007813 1.695312 0 3.414062-.429688 4.988281-1.335938 4.785157-2.761719 6.429688-8.878906 3.667969-13.664062l-42.933594-74.46875 40.570313-70.207031 45.816406.027343c5.511719 0 9.992187-4.480469 10.003906-9.992187 0-2.671875-1.039062-5.183594-2.929687-7.074219-1.882813-1.890625-4.394532-2.929687-7.0625-2.941406zm-183.890625-219.59375 80.640625.050781 40.277344 69.859375-40.144532 69.429687-80.640625-.050781-40.273437-69.863281zm-57.789063 219.28125-80.300781-.050781-40.277344-69.863282 40.367188-69.808594 80.183593.050782 40.335938 69.957031zm138.339844 79.734375-80.636719-.050782-40.105469-69.566406 40.3125-69.722656 80.742188.050781 40.054688 69.476563zm0 0"/><path d="m91.777344 72.363281h.011718c1.660157 0 3.3125-.492187 4.769532-1.292969 2.351562-1.28125 4.054687-3.421874 4.8125-5.984374.75-2.570313.460937-5.285157-.820313-7.625-1.75-3.222657-5.121093-5.230469-8.78125-5.230469-1.660156 0-3.320312.417969-4.78125 1.226562-2.351562 1.273438-4.0625 3.390625-4.8125 5.949219-.75 2.570312-.460937 5.332031.820313 7.671875 1.75 3.222656 5.121094 5.285156 8.78125 5.285156zm0 0"/><path d="m89.238281 366.28125c-1.679687-1.171875-3.652343-1.789062-5.703125-1.789062-3.28125 0-6.351562 1.609374-8.222656 4.300781-3.140625 4.53125-2.019531 10.773437 2.511719 13.925781 1.679687 1.167969 3.652343 1.789062 5.703125 1.789062 3.28125 0 6.351562-1.609374 8.222656-4.300781 3.140625-4.53125 2.019531-10.773437-2.511719-13.925781zm0 0"/><path d="m228.78125 451.40625c-1.589844-.980469-3.410156-1.5-5.261719-1.5-3.492187 0-6.671875 1.773438-8.511719 4.730469-1.410156 2.273437-1.851562 4.960937-1.242187 7.566406.613281 2.597656 2.203125 4.808594 4.472656 6.210937 1.589844.976563 3.402344 1.5 5.261719 1.5 3.492188 0 6.671875-1.773437 8.511719-4.730468 1.410156-2.273438 1.851562-4.953125 1.242187-7.554688-.621094-2.601562-2.203125-4.808594-4.472656-6.222656zm0 0"/><path d="m161.78125 72.191406c1.265625.734375 2.714844 1.101563 4.519531 1.101563 1.730469 0 3.375-.367188 4.675781-1.101563 1.300782-.734375 2.078126-1.734375 2.078126-3v-28.839844h22.007812v28.839844c0 1.265625.71875 2.265625 1.988281 3 1.265625.734375 2.84375 1.101563 4.644531 1.101563 1.734376 0 3.1875-.367188 4.488282-1.101563 1.300781-.734375 1.882812-1.734375 1.882812-3v-65.054687c0-1.332031-.546875-2.335938-1.8125-3.003907-1.269531-.664062-2.757812-1-4.558594-1-1.800781 0-3.402343.335938-4.667968 1-1.265625.667969-1.964844 1.671876-1.964844 3.003907v26.210937h-22.007812v-26.210937c0-1.332031-.804688-2.335938-2.066407-3.003907-1.269531-.664062-2.890625-1-4.691406-1s-3.207031.335938-4.472656 1c-1.269531.667969-1.773438 1.671876-1.773438 3.003907v65.050781c0 1.269531.460938 2.269531 1.730469 3.003906zm0 0"/><path d="m478.40625 178.277344c-1.269531-.667969-2.726562-1.003906-4.527344-1.003906-1.800781 0-3.449218.335937-4.714844 1.003906-1.269531.664062-2.015624 1.667968-2.015624 3v26.125h-22.007813v-26.125c0-1.332032-.738281-2.335938-2.003906-3-1.269531-.667969-2.851563-1.003906-4.65625-1.003906-1.800781 0-3.253907.335937-4.523438 1.003906-1.269531.664062-1.820312 1.667968-1.820312 3v65.050781c0 1.269531.527343 2.269531 1.792969 3.003906 1.269531.734375 2.75 1.101563 4.554687 1.101563 1.730469 0 3.328125-.367188 4.628906-1.101563s2.027344-1.734375 2.027344-3.003906v-28.921875h22.007813v28.925781c0 1.265625.785156 2.265625 2.054687 3 1.265625.734375 2.878906 1.101563 4.679687 1.101563 1.734376 0 3.132813-.367188 4.433594-1.101563 1.300782-.734375 1.835938-1.734375 1.835938-3v-65.054687c-.003906-1.332032-.480469-2.335938-1.746094-3zm0 0"/><path d="m46.34375 271.75c1.800781 0 3.28125.25 4.613281.75 1.335938.5 2.292969 1.101562 2.960938 1.800781.667969.703125 1.195312 1.570313 1.628906 2.605469s.6875 1.867188.789063 2.5c.101562.636719.175781 1.386719.246093 2.253906.066407 2.734375 2.230469 4.101563 6.5 4.101563 2.335938 0 4.003907-.449219 5.003907-1.351563s1.5-2.585937 1.5-5.054687c0-5.734375-2.21875-10.339844-6.652344-13.808594-4.441406-3.46875-10.160156-5.207031-17.164063-5.207031-6.875 0-12.265625 1.855468-16.535156 5.554687-4.273437 3.703125-6.226563 9.492188-6.226563 17.363281v27.925782c0 7.871094 1.9375 13.660156 6.175782 17.363281 4.234375 3.699219 9.703125 5.554687 16.574218 5.554687 7.070313 0 12.78125-1.804687 17.21875-5.40625 4.4375-3.601562 6.632813-8.40625 6.632813-14.410156 0-2.46875-.53125-4.152344-1.5625-5.054687-1.035156-.898438-2.726563-1.351563-5.058594-1.351563-4.070312 0-6.207031 1.367188-6.410156 4.101563-.066406 1.402343-.21875 2.589843-.453125 3.554687-.234375.96875-.667969 2.070313-1.300781 3.304688-.632813 1.234375-1.667969 2.183594-3.101563 2.851562-1.4375.667969-3.042968 1-5.179687 1-7.140625 0-10.53125-3.835937-10.53125-11.507812v-27.921875c0-7.671875 3.328125-11.511719 10.332031-11.511719zm0 0"/></svg>